<svg xmlns="http://www.w3.org/2000/svg" xmlns:xlink="http://www.w3.org/1999/xlink" viewBox="0 0 114.08 23.2"><defs><style>.a{fill:#000111;}.b{fill:url(#a);}.c{fill:none;stroke-linecap:round;stroke-miterlimit:10;stroke:url(#b);}</style><linearGradient id="a" y1="11.6" x2="22" y2="11.6" gradientUnits="userSpaceOnUse"><stop offset="0" stop-color="#11998e"/><stop offset="0.67" stop-color="#2dd682"/><stop offset="1" stop-color="#38ef7d"/></linearGradient><linearGradient id="b" x1="26.54" y1="16.73" x2="113.9" y2="16.73" xlink:href="#a"/></defs><title>Pharmacity_1</title><path class="a" d="M30.64,4.66a2.9,2.9,0,0,1,2.07.81,2.62,2.62,0,0,1,0,3.87,2.94,2.94,0,0,1-2,.84H28.68v3.16a.74.74,0,0,1-.22.55.78.78,0,0,1-.55.23.79.79,0,0,1-.78-.78V5.43a.74.74,0,0,1,.23-.54.71.71,0,0,1,.55-.23Zm0,4a1.45,1.45,0,0,0,.95-.36A1.11,1.11,0,0,0,32,7.42a1.08,1.08,0,0,0-.4-.85,1.43,1.43,0,0,0-1-.36h-2V8.62Z"/><path class="a" d="M42,14.12a.75.75,0,0,1-.55-.23.73.73,0,0,1-.23-.55V10.18h-4v3.16a.76.76,0,0,1-.23.55.75.75,0,0,1-.55.23.78.78,0,0,1-.55-.23.76.76,0,0,1-.23-.55V5.47a.79.79,0,0,1,.78-.79.75.75,0,0,1,.55.23.79.79,0,0,1,.23.56V8.62h4V5.47A.79.79,0,0,1,42,4.68a.79.79,0,0,1,.78.79v7.87a.76.76,0,0,1-.23.55A.78.78,0,0,1,42,14.12Z"/><path class="a" d="M45.46,14.06a.78.78,0,0,1-.42-.42.85.85,0,0,1,0-.59l.84-2h0l2.4-5.85a.21.21,0,0,1,0-.06v0l0,0,0,0,0,0,0,0s0,0,0,0l0,0,0,0,0,0,0,0,0,0,0,0,0,0h0l.05,0h.37l0,0h0l.15.06h0l0,0,0,0,0,0s0,0,0,0l0,0s0,0,0,0l0,0,0,0,0,0,0,0s0,0,0,0l0,.06L52.11,11h0l.84,2a.85.85,0,0,1,0,.59.78.78,0,0,1-.42.42.8.8,0,0,1-.3.06.71.71,0,0,1-.71-.48l-.63-1.53H47.1l-.63,1.53a.71.71,0,0,1-.71.48h-.15Zm4.79-3.5L49,7.51l-1.26,3.05Z"/><path class="a" d="M61.21,7.41A2.56,2.56,0,0,1,60.68,9a2.82,2.82,0,0,1-1.37,1l1.49,3a.8.8,0,0,1-.35,1,.84.84,0,0,1-.34.08.71.71,0,0,1-.69-.43l-1.74-3.54H56.36v3.14a.78.78,0,0,1-.23.55.79.79,0,0,1-1.09,0,.77.77,0,0,1-.22-.55V5.44A.75.75,0,0,1,55,4.89a.74.74,0,0,1,.54-.23h2.71a2.9,2.9,0,0,1,2.07.81A2.55,2.55,0,0,1,61.21,7.41ZM58.35,8.6a1.45,1.45,0,0,0,.94-.36,1.07,1.07,0,0,0,.38-.83,1.08,1.08,0,0,0-.4-.85,1.47,1.47,0,0,0-1-.35H56.36V8.6Z"/><path class="a" d="M72.21,4.68a.73.73,0,0,1,.41.28.78.78,0,0,1,.15.47v7.91a.74.74,0,0,1-.22.55.77.77,0,0,1-1.1,0,.74.74,0,0,1-.22-.55V8.22l-2.44,4.06h0s0,0,0,0l0,0,0,0,0,0,0,0,0,0,0,0,0,0h0l0,0h0l0,0a.7.7,0,0,1-.32.05h0l-.17,0h0l0,0h0l0,0h0l0,0,0,0,0,0,0,0,0,0,0,0v0l0,0h0s0,0,0,0h0L65,8.22v5.12a.75.75,0,0,1-.23.55.76.76,0,0,1-.55.23.74.74,0,0,1-.54-.23.71.71,0,0,1-.23-.55V5.43A.72.72,0,0,1,63.62,5,.7.7,0,0,1,64,4.68a.75.75,0,0,1,.49,0A.81.81,0,0,1,64.9,5l3.22,5.35L71.34,5a.79.79,0,0,1,.37-.33L72,4.61Z"/><path class="a" d="M75.46,14.06a.72.72,0,0,1-.42-.42.76.76,0,0,1,0-.59l.83-2h0l2.41-5.85,0-.06v0s0,0,0,0l0,0,0,0,0,0s0,0,0,0l0,0,0,0,0,0,0,0,0,0,0,0,0,0h0l0,0h.38l0,0h0l.14.06h0l0,0,0,0,0,0,0,0,0,0s0,0,0,0l0,0,0,0,0,0s0,0,0,0l0,0,0,.06L82.11,11h0l.83,2a.76.76,0,0,1,0,.59.72.72,0,0,1-.42.42.75.75,0,0,1-.29.06.72.72,0,0,1-.72-.48l-.63-1.53H77.09l-.62,1.53a.72.72,0,0,1-.72.48H75.6Zm4.79-3.5L79,7.51l-1.26,3.05Z"/><path class="a" d="M88.9,14.12a4.51,4.51,0,0,1-3.31-1.38,4.56,4.56,0,0,1-1.37-3.32,4.57,4.57,0,0,1,1.37-3.33,4.67,4.67,0,0,1,6.16-.41A.78.78,0,0,1,92,6.2a.76.76,0,0,1-.15.58.71.71,0,0,1-.51.29.75.75,0,0,1-.58-.15,3.13,3.13,0,0,0-5,2.5,3.06,3.06,0,0,0,.92,2.22,3,3,0,0,0,2.21.92,3,3,0,0,0,2.1-.82.78.78,0,0,1,.56-.2.74.74,0,0,1,.54.26.75.75,0,0,1,.2.56.76.76,0,0,1-.25.54A4.53,4.53,0,0,1,88.9,14.12Z"/><path class="a" d="M95.27,14.12a.79.79,0,0,1-.77-.78V5.49a.77.77,0,0,1,1.32-.55.74.74,0,0,1,.22.55v7.85a.74.74,0,0,1-.22.55A.75.75,0,0,1,95.27,14.12Z"/><path class="a" d="M100.68,6.22h-2A.79.79,0,0,1,98,5.44a.76.76,0,0,1,.23-.55.74.74,0,0,1,.54-.23h5.44a.76.76,0,0,1,.55.23.75.75,0,0,1,.22.55.74.74,0,0,1-.22.55.76.76,0,0,1-.55.23h-2v7.12a.75.75,0,0,1-.23.56.72.72,0,0,1-.54.22.73.73,0,0,1-.54-.22.75.75,0,0,1-.23-.56Z"/><path class="a" d="M113.08,4.87A.77.77,0,0,1,113.2,6l-2.83,3.57v3.81a.79.79,0,0,1-.23.56.79.79,0,0,1-1.09,0,.79.79,0,0,1-.23-.56V9.53L106,6a.75.75,0,0,1-.17-.57.78.78,0,0,1,.29-.52.76.76,0,0,1,.57-.17.78.78,0,0,1,.51.29l2.41,3L112,5a.83.83,0,0,1,.51-.29A.76.76,0,0,1,113.08,4.87Z"/><path class="a" d="M29.22,19.12a.25.25,0,0,1,.11.19.26.26,0,0,1-.06.21l-1.05,1.29V22.2a.28.28,0,0,1-.08.2.3.3,0,0,1-.2.08.28.28,0,0,1-.2-.08.25.25,0,0,1-.09-.2V20.81l-1-1.29a.26.26,0,0,1-.06-.21.27.27,0,0,1,.1-.19.26.26,0,0,1,.21-.06.29.29,0,0,1,.19.11l.89,1.1.89-1.1a.27.27,0,0,1,.39-.05Z"/><path class="a" d="M31.52,22.48a1.72,1.72,0,0,1-1.73-1.72,1.65,1.65,0,0,1,.51-1.21,1.63,1.63,0,0,1,1.22-.5A1.72,1.72,0,0,1,32.75,22,1.71,1.71,0,0,1,31.52,22.48Zm0-2.87a1.11,1.11,0,0,0-.82.34,1.09,1.09,0,0,0-.34.81,1.11,1.11,0,0,0,.34.82,1.16,1.16,0,0,0,1.64,0,1.11,1.11,0,0,0,.34-.82,1.09,1.09,0,0,0-.34-.81A1.11,1.11,0,0,0,31.52,19.61Z"/><path class="a" d="M36.23,19.05a.28.28,0,0,1,.2.08.26.26,0,0,1,.08.2v1.93a1.16,1.16,0,0,1-.36.86,1.23,1.23,0,0,1-1.74,0,1.16,1.16,0,0,1-.36-.86V19.33a.26.26,0,0,1,.08-.2.28.28,0,0,1,.2-.08.27.27,0,0,1,.19.08.27.27,0,0,1,.09.2v1.93a.64.64,0,0,0,.19.47.68.68,0,0,0,1,0,.64.64,0,0,0,.19-.47V19.33a.27.27,0,0,1,.09-.2A.27.27,0,0,1,36.23,19.05Z"/><path class="a" d="M39.84,20a1,1,0,0,1-.2.58,1.13,1.13,0,0,1-.5.36l.54,1.1a.22.22,0,0,1,0,.21.25.25,0,0,1-.14.16.27.27,0,0,1-.12,0,.27.27,0,0,1-.26-.16L38.53,21H38v1.14a.26.26,0,0,1-.08.2.28.28,0,0,1-.2.08.3.3,0,0,1-.2-.08.26.26,0,0,1-.08-.2V19.33a.24.24,0,0,1,.08-.2.26.26,0,0,1,.2-.08h1a1,1,0,0,1,.76.29A.92.92,0,0,1,39.84,20Zm-1.06.44a.63.63,0,0,0,.35-.13.43.43,0,0,0,.14-.31.37.37,0,0,0-.15-.3.52.52,0,0,0-.36-.13H38v.87Z"/><path class="a" d="M44.23,22.48a.32.32,0,0,1-.2-.08.3.3,0,0,1-.08-.2V21.05H42.46V22.2a.3.3,0,0,1-.08.2.32.32,0,0,1-.2.08A.32.32,0,0,1,42,22.4a.3.3,0,0,1-.08-.2V19.34a.28.28,0,0,1,.08-.2.29.29,0,0,1,.21-.09.28.28,0,0,1,.2.09.28.28,0,0,1,.08.2v1.14H44V19.34a.28.28,0,0,1,.08-.2.28.28,0,0,1,.2-.09.29.29,0,0,1,.21.09.28.28,0,0,1,.08.2V22.2a.3.3,0,0,1-.08.2A.32.32,0,0,1,44.23,22.48Z"/><path class="a" d="M47.08,22.48a1.71,1.71,0,0,1-1.23-.5,1.74,1.74,0,1,1,2.45,0A1.7,1.7,0,0,1,47.08,22.48Zm0-2.87a1.18,1.18,0,0,0-1.17,1.15,1.12,1.12,0,0,0,.35.82,1.13,1.13,0,0,0,.82.34,1.15,1.15,0,0,0,.82-.34,1.11,1.11,0,0,0,.34-.82A1.09,1.09,0,0,0,47.9,20,1.11,1.11,0,0,0,47.08,19.61Z"/><path class="a" d="M52.89,19.05a.31.31,0,0,1,.15.1.27.27,0,0,1,.06.17V22.2a.3.3,0,0,1-.08.2.32.32,0,0,1-.21.08.27.27,0,0,1-.28-.28V20.34l-.9,1.47h0v0h-.12a.25.25,0,0,1-.12,0h-.22v0h0l-.89-1.47V22.2a.27.27,0,0,1-.09.2.3.3,0,0,1-.2.08.28.28,0,0,1-.2-.08.27.27,0,0,1-.09-.2V19.32a.27.27,0,0,1,.06-.17.31.31,0,0,1,.15-.1.27.27,0,0,1,.18,0,.24.24,0,0,1,.14.12l1.19,1.94,1.19-1.94a.24.24,0,0,1,.14-.12l.09,0Z"/><path class="a" d="M56.17,21.91a.29.29,0,0,1,.21.09.28.28,0,0,1,.08.2.3.3,0,0,1-.08.2.32.32,0,0,1-.21.08H54.43a.28.28,0,0,1-.2-.08.27.27,0,0,1-.09-.2V19.33a.25.25,0,0,1,.09-.2.24.24,0,0,1,.2-.08h1.74a.27.27,0,0,1,.29.29.27.27,0,0,1-.08.19.29.29,0,0,1-.21.09H54.71v.87h1.06a.3.3,0,0,1,.2.08.27.27,0,0,1,.08.2A.28.28,0,0,1,56,21a.3.3,0,0,1-.2.08H54.71v.86Z"/><path class="a" d="M60.47,19.05a.27.27,0,0,1,.28.29.24.24,0,0,1-.08.19.25.25,0,0,1-.2.09H59v.87h1.05a.32.32,0,0,1,.21.08.32.32,0,0,1,.08.2.27.27,0,0,1-.29.29H59V22.2a.3.3,0,0,1-.08.2.32.32,0,0,1-.21.08.27.27,0,0,1-.28-.28V19.33a.28.28,0,0,1,.08-.2.26.26,0,0,1,.2-.08h1.75Z"/><path class="a" d="M62.89,22.48a1.71,1.71,0,0,1-1.23-.5,1.72,1.72,0,0,1,1.23-2.93A1.71,1.71,0,0,1,64.11,22,1.68,1.68,0,0,1,62.89,22.48Zm0-2.87a1.16,1.16,0,0,0-1.16,1.15,1.11,1.11,0,0,0,.34.82,1.13,1.13,0,0,0,.82.34,1.15,1.15,0,0,0,.82-.34,1.11,1.11,0,0,0,.34-.82,1.09,1.09,0,0,0-.34-.81A1.11,1.11,0,0,0,62.89,19.61Z"/><path class="a" d="M67.83,20a1,1,0,0,1-.2.58,1.13,1.13,0,0,1-.5.36l.54,1.1a.26.26,0,0,1,0,.21.29.29,0,0,1-.15.16l-.12,0a.27.27,0,0,1-.26-.16L66.52,21H66v1.14a.27.27,0,0,1-.09.2.28.28,0,0,1-.2.08.27.27,0,0,1-.28-.28V19.33a.28.28,0,0,1,.08-.2.26.26,0,0,1,.2-.08h1a1,1,0,0,1,.76.29A.92.92,0,0,1,67.83,20Zm-1.06.44a.63.63,0,0,0,.35-.13.43.43,0,0,0,.14-.31.37.37,0,0,0-.15-.3.52.52,0,0,0-.36-.13H66v.87Z"/><path class="a" d="M69.82,22.46a.28.28,0,0,1-.15-.15.28.28,0,0,1,0-.22l.3-.73h0l.89-2.12v0h0v0H71s0,0,0,0h.19l.06,0h.07v0h0a0,0,0,0,1,0,0l.89,2.12h0l.31.73a.28.28,0,0,1,0,.22.26.26,0,0,1-.16.15.18.18,0,0,1-.1,0,.28.28,0,0,1-.27-.17l-.23-.56h-1.4l-.23.56a.26.26,0,0,1-.26.17h-.06Zm1.77-1.27-.47-1.11-.46,1.11Z"/><path class="a" d="M76.85,22.48a.28.28,0,0,1-.2-.08.27.27,0,0,1-.09-.2V21.05H75.08V22.2a.27.27,0,0,1-.09.2.29.29,0,0,1-.4,0,.27.27,0,0,1-.09-.2V19.34a.29.29,0,0,1,.58,0v1.14h1.48V19.34a.29.29,0,0,1,.58,0V22.2a.27.27,0,0,1-.09.2A.28.28,0,0,1,76.85,22.48Z"/><path class="a" d="M80.21,21.91a.31.31,0,0,1,.29.29.27.27,0,0,1-.09.2.28.28,0,0,1-.2.08H78.46a.27.27,0,0,1-.28-.28V19.33a.28.28,0,0,1,.08-.2.26.26,0,0,1,.2-.08h1.75a.28.28,0,0,1,.2.08.29.29,0,0,1,.09.21.25.25,0,0,1-.09.19.25.25,0,0,1-.2.09H78.75v.87h1a.32.32,0,0,1,.21.08.32.32,0,0,1,.08.2.27.27,0,0,1-.29.29h-1v.86Z"/><path class="a" d="M81.19,22.46a.28.28,0,0,1-.15-.15.28.28,0,0,1,0-.22l.3-.73h0l.89-2.12v0h0v0h.08s0,0,0,0h.19l.06,0h.07v0h0a0,0,0,0,1,0,0l.89,2.12h0l.31.73a.28.28,0,0,1,0,.22.26.26,0,0,1-.16.15.18.18,0,0,1-.1,0,.28.28,0,0,1-.27-.17l-.23-.56h-1.4l-.23.56a.26.26,0,0,1-.26.17h-.06ZM83,21.19l-.47-1.11L82,21.19Z"/><path class="a" d="M84.94,19.05a.27.27,0,0,1,.28.28v2.59H86.5a.28.28,0,1,1,0,.56H84.94a.32.32,0,0,1-.21-.08.3.3,0,0,1-.08-.2V19.33a.32.32,0,0,1,.08-.2A.32.32,0,0,1,84.94,19.05Z"/><path class="a" d="M88.08,19.61h-.72a.28.28,0,0,1-.2-.08.26.26,0,0,1-.08-.2.27.27,0,0,1,.28-.28h2a.27.27,0,0,1,.2.08.28.28,0,0,1,.08.2.3.3,0,0,1-.08.2.32.32,0,0,1-.2.08h-.72V22.2a.25.25,0,0,1-.09.2.28.28,0,0,1-.2.08.3.3,0,0,1-.2-.08.28.28,0,0,1-.08-.2Z"/><path class="a" d="M92.63,22.48a.32.32,0,0,1-.21-.08.3.3,0,0,1-.08-.2V21.05H90.85V22.2a.26.26,0,0,1-.08.2.3.3,0,0,1-.2.08.32.32,0,0,1-.21-.08.3.3,0,0,1-.08-.2V19.34a.28.28,0,0,1,.08-.2.29.29,0,0,1,.21-.09.27.27,0,0,1,.2.09.24.24,0,0,1,.08.2v1.14h1.49V19.34a.28.28,0,0,1,.08-.2.29.29,0,0,1,.21-.09.27.27,0,0,1,.2.09.24.24,0,0,1,.08.2V22.2a.26.26,0,0,1-.08.2A.3.3,0,0,1,92.63,22.48Z"/><path class="a" d="M94.24,22.48A.27.27,0,0,1,94,22.2V19.35a.28.28,0,0,1,.08-.2.27.27,0,0,1,.2-.09.31.31,0,0,1,.29.29V22.2a.27.27,0,0,1-.09.2A.28.28,0,0,1,94.24,22.48Z"/><path class="a" d="M97.6,21.91a.27.27,0,0,1,.2.09.24.24,0,0,1,.08.2.26.26,0,0,1-.08.2.3.3,0,0,1-.2.08H95.85a.27.27,0,0,1-.28-.28V19.33a.28.28,0,0,1,.08-.2.26.26,0,0,1,.2-.08H97.6a.27.27,0,0,1,.28.29.24.24,0,0,1-.08.19.27.27,0,0,1-.2.09H96.14v.87h1a.32.32,0,0,1,.21.08.32.32,0,0,1,.08.2.27.27,0,0,1-.29.29h-1v.86Z"/><path class="a" d="M101,20a1,1,0,0,1-.2.58,1.08,1.08,0,0,1-.5.36l.55,1.1a.3.3,0,0,1,0,.21.28.28,0,0,1-.14.16.31.31,0,0,1-.13,0,.25.25,0,0,1-.25-.16L99.69,21H99.2v1.14a.27.27,0,0,1-.09.2.28.28,0,0,1-.2.08.32.32,0,0,1-.2-.08.3.3,0,0,1-.08-.2V19.33a.28.28,0,0,1,.08-.2.27.27,0,0,1,.2-.08h1a1,1,0,0,1,.76.29A.92.92,0,0,1,101,20Zm-1.06.44a.6.6,0,0,0,.35-.13.43.43,0,0,0,.14-.31.37.37,0,0,0-.15-.3.52.52,0,0,0-.36-.13H99.2v.87Z"/><path class="a" d="M103.33,19.05a.28.28,0,0,1,.2.08.28.28,0,0,1,.09.2v2.59h1.27a.32.32,0,0,1,.21.08.29.29,0,0,1,0,.4.32.32,0,0,1-.21.08h-1.56a.3.3,0,0,1-.2-.08.26.26,0,0,1-.08-.2V19.33a.27.27,0,0,1,.08-.2A.3.3,0,0,1,103.33,19.05Z"/><path class="a" d="M106.09,22.48a.27.27,0,0,1-.28-.28V19.35a.28.28,0,0,1,.08-.2.27.27,0,0,1,.2-.09.31.31,0,0,1,.29.29V22.2a.27.27,0,0,1-.09.2A.28.28,0,0,1,106.09,22.48Z"/><path class="a" d="M109.45,19.05a.27.27,0,0,1,.28.29.24.24,0,0,1-.08.19.25.25,0,0,1-.2.09H108v.87H109a.32.32,0,0,1,.21.08.32.32,0,0,1,.08.2.27.27,0,0,1-.29.29H108V22.2a.3.3,0,0,1-.08.2.32.32,0,0,1-.21.08.27.27,0,0,1-.28-.28V19.33a.28.28,0,0,1,.08-.2.26.26,0,0,1,.2-.08h1.75Z"/><path class="a" d="M112.39,21.91a.27.27,0,0,1,.2.09.28.28,0,0,1,.08.2.27.27,0,0,1-.28.28h-1.75a.28.28,0,0,1-.2-.08.26.26,0,0,1-.08-.2V19.33a.27.27,0,0,1,.28-.28h1.75a.3.3,0,0,1,.2.08.28.28,0,0,1,.08.21.27.27,0,0,1-.08.19.27.27,0,0,1-.2.09h-1.46v.87h1a.28.28,0,0,1,.2.08.28.28,0,0,1,.09.2.29.29,0,0,1-.09.21.28.28,0,0,1-.2.08h-1v.86Z"/><path class="a" d="M113.79,21.9a.28.28,0,0,1,.2.08.28.28,0,0,1,.09.2.25.25,0,0,1-.09.2.24.24,0,0,1-.2.08.27.27,0,0,1-.2-.08.28.28,0,0,1-.08-.2.27.27,0,0,1,.28-.28Z"/><path class="b" d="M21.85,7.67l-2-3.25a1,1,0,0,0-1.36-.3l-3.05,2a1,1,0,0,1-1.51-.82V1a1,1,0,0,0-1-1H9.08a1,1,0,0,0-1,1V5.27a1,1,0,0,1-1.5.83L3.54,4.19a1,1,0,0,0-1.35.31l-2,3.25A1,1,0,0,0,.46,9.1l3.68,2.31a1,1,0,0,1,0,1.66L.46,15.38a1,1,0,0,0-.31,1.35l2,3.25a1,1,0,0,0,1.35.31L6.6,18.38a1,1,0,0,1,1.5.83v3a1,1,0,0,0,1,1h3.84a1,1,0,0,0,1-1v-3a1,1,0,0,1,1.52-.82l3,2a1,1,0,0,0,1.36-.3l2-3.24a1,1,0,0,0-.31-1.36l-3.82-2.39a1,1,0,0,1,0-1.66L21.54,9A1,1,0,0,0,21.85,7.67Z"/><line class="c" x1="27.04" y1="16.73" x2="113.4" y2="16.73"/></svg>